<svg width="115" height="100" viewBox="0 0 115 100" fill="none" xmlns="http://www.w3.org/2000/svg">
<path opacity="0.15" d="M15.7898 98.8827L82.582 1.11731H99.2102L32.418 98.8827H15.7898ZM24.3135 53.9106C19.5626 53.9106 15.3706 52.8398 11.7375 50.6983C8.1045 48.4637 5.21669 45.3445 3.07412 41.3408C1.02471 37.2439 0 32.4488 0 26.9553C0 21.4618 1.02471 16.7132 3.07412 12.7095C5.21669 8.70577 8.1045 5.58659 11.7375 3.35195C15.3706 1.11732 19.5626 0 24.3135 0C29.0644 0 33.2564 1.11732 36.8894 3.35195C40.5225 5.58659 43.3637 8.70577 45.4131 12.7095C47.4625 16.7132 48.4872 21.4618 48.4872 26.9553C48.4872 32.4488 47.4625 37.2439 45.4131 41.3408C43.3637 45.3445 40.5225 48.4637 36.8894 50.6983C33.2564 52.8398 29.0644 53.9106 24.3135 53.9106ZM24.3135 42.4581C27.3876 42.4581 29.8562 41.2011 31.7193 38.6871C33.5824 36.0801 34.514 32.1695 34.514 26.9553C34.514 21.7411 33.5824 17.8771 31.7193 15.3631C29.8562 12.756 27.3876 11.4525 24.3135 11.4525C21.3325 11.4525 18.8639 12.756 16.9077 15.3631C15.0446 17.8771 14.113 21.7411 14.113 26.9553C14.113 32.0763 15.0446 35.9404 16.9077 38.5475C18.8639 41.1546 21.3325 42.4581 24.3135 42.4581ZM90.6865 100C86.0288 100 81.8368 98.9292 78.1106 96.7877C74.4775 94.5531 71.6363 91.4339 69.5869 87.4302C67.5375 83.3333 66.5128 78.5382 66.5128 73.0447C66.5128 67.5512 67.5375 62.8026 69.5869 58.7989C71.6363 54.7952 74.4775 51.676 78.1106 49.4413C81.8368 47.2067 86.0288 46.0894 90.6865 46.0894C95.5306 46.0894 99.7691 47.2067 103.402 49.4413C107.035 51.676 109.876 54.7952 111.926 58.7989C113.975 62.8026 115 67.5512 115 73.0447C115 78.5382 113.975 83.3333 111.926 87.4302C109.876 91.4339 107.035 94.5531 103.402 96.7877C99.7691 98.9292 95.5306 100 90.6865 100ZM90.6865 88.5475C93.7606 88.5475 96.2293 87.2905 98.0924 84.7765C99.9555 82.1695 100.887 78.2589 100.887 73.0447C100.887 67.9237 99.9555 64.0596 98.0924 61.4525C96.2293 58.8454 93.7606 57.5419 90.6865 57.5419C87.7056 57.5419 85.237 58.8454 83.2807 61.4525C81.4176 63.9665 80.486 67.8305 80.486 73.0447C80.486 78.2589 81.4176 82.1695 83.2807 84.7765C85.237 87.2905 87.7056 88.5475 90.6865 88.5475Z" fill="#797979"/>
</svg>
