<svg width="10" height="8" viewBox="0 0 10 8" fill="none" xmlns="http://www.w3.org/2000/svg">
<path fill-rule="evenodd" clip-rule="evenodd" d="M9.1665 0C9.6265 0 10 0.397867 10 0.889067V7.11093C10 7.6016 9.627 8 9.1665 8H0.8335C0.3735 8 0 7.60213 0 7.11093V0.889067C0 0.3984 0.373 0 0.8335 0H9.1665ZM3.584 4.70827L1.129 7.296H8.7915L6.363 4.73493L5 5.74133L3.584 4.70827ZM9.32 2.55573L6.922 4.32427L9.32 6.85013V2.55573ZM0.6805 2.58827V6.76747L3.0235 4.2976L0.6805 2.58827ZM9.1585 0.704533H0.849C0.803373 0.70225 0.758654 0.718659 0.724 0.7504C0.708601 0.76511 0.696713 0.783524 0.689322 0.804116C0.68193 0.824707 0.679249 0.846882 0.6815 0.8688V1.7328L5 4.8832L9.322 1.70187V0.906133C9.3225 0.834667 9.307 0.782933 9.276 0.7504C9.26061 0.734424 9.24224 0.722083 9.22208 0.714181C9.20192 0.706279 9.18043 0.702991 9.159 0.704533H9.1585Z" fill="white"/>
</svg>
