<svg width="18" height="16" viewBox="0 0 18 16" fill="none" xmlns="http://www.w3.org/2000/svg">
<path fill-rule="evenodd" clip-rule="evenodd" d="M16.4997 0.335938C17.3277 0.335938 18 1.07809 18 1.99434V13.6002C18 14.5155 17.3286 15.2586 16.4997 15.2586H1.5003C0.6723 15.2586 0 14.5164 0 13.6002V1.99434C0 1.07909 0.6714 0.335938 1.5003 0.335938H16.4997ZM6.4512 9.11842L2.0322 13.9454H15.8247L11.4534 9.16816L9 11.0454L6.4512 9.11842ZM16.776 5.10323L12.4596 8.40213L16.776 13.1137V5.10323ZM1.2249 5.16392V12.9595L5.4423 8.35239L1.2249 5.16392ZM16.4853 1.65013H1.5282C1.44607 1.64587 1.36558 1.67648 1.3032 1.73568C1.27548 1.76312 1.25408 1.79747 1.24078 1.83588C1.22747 1.87429 1.22265 1.91565 1.2267 1.95654V3.56819L9 9.44473L16.7796 3.51049V2.02618C16.7805 1.89287 16.7526 1.79637 16.6968 1.73568C16.6691 1.70588 16.636 1.68286 16.5997 1.66812C16.5635 1.65338 16.5248 1.64725 16.4862 1.65013H16.4853Z" fill="#4C4B4A"/>
</svg>
