<svg width="16" height="18" viewBox="0 0 16 18" fill="none" xmlns="http://www.w3.org/2000/svg">
<path d="M3.21778 7.66449L5.17333 5.58005C5.42222 5.31476 5.49333 4.94525 5.39556 4.61363C5.06667 3.55246 4.88889 2.4155 4.88889 1.23116C4.88889 0.710053 4.48889 0.283691 4 0.283691H0.888888C0.399999 0.283691 0 0.710053 0 1.23116C0 10.1279 6.76444 17.3382 15.1111 17.3382C15.6 17.3382 16 16.9118 16 16.3907V13.084C16 12.5629 15.6 12.1365 15.1111 12.1365C14.0089 12.1365 12.9333 11.9471 11.9378 11.5965C11.6267 11.4828 11.2711 11.5681 11.0311 11.8239L9.07556 13.9083C6.56 12.5345 4.49778 10.3458 3.21778 7.66449Z" fill="#4C4B4A"/>
</svg>
