<svg width="16" height="17" viewBox="0 0 16 17" fill="none" xmlns="http://www.w3.org/2000/svg">
<path d="M3.21778 7.13824L5.17333 5.2119C5.42222 4.96673 5.49333 4.62525 5.39556 4.31878C5.06667 3.3381 4.88889 2.28738 4.88889 1.19287C4.88889 0.711284 4.48889 0.317261 4 0.317261H0.888888C0.399999 0.317261 0 0.711284 0 1.19287C0 9.41481 6.76444 16.0782 15.1111 16.0782C15.6 16.0782 16 15.6842 16 15.2026V12.1467C16 11.6651 15.6 11.2711 15.1111 11.2711C14.0089 11.2711 12.9333 11.096 11.9378 10.772C11.6267 10.6669 11.2711 10.7457 11.0311 10.9822L9.07556 12.9085C6.56 11.6389 4.49778 9.6162 3.21778 7.13824Z" fill="white"/>
</svg>
