<svg width="16" height="15" viewBox="0 0 16 15" fill="none" xmlns="http://www.w3.org/2000/svg">
<path d="M3.21778 6.38074L5.17333 4.57873C5.42222 4.34939 5.49333 4.02994 5.39556 3.74326C5.06667 2.82587 4.88889 1.84296 4.88889 0.819094C4.88889 0.368592 4.48889 0 4 0H0.888888C0.4 0 0 0.368592 0 0.819094C0 8.51038 6.76444 14.7437 15.1111 14.7437C15.6 14.7437 16 14.3751 16 13.9246V11.066C16 10.6155 15.6 10.2469 15.1111 10.2469C14.0089 10.2469 12.9333 10.083 11.9378 9.77998C11.6267 9.68169 11.2711 9.75541 11.0311 9.97656L9.07556 11.7786C6.56 10.5909 4.49778 8.69877 3.21778 6.38074Z" fill="#4C4B4A"/>
</svg>
