<svg width="19" height="19" viewBox="0 0 19 19" fill="none" xmlns="http://www.w3.org/2000/svg">
<path d="M10.6538 8.80347C11.0122 8.90889 11.3534 9.06605 11.6668 9.26826C11.9878 9.4791 12.2561 9.76276 12.4488 10.0943C12.649 10.4623 12.7506 10.8754 12.743 11.2942C12.7598 11.8342 12.5989 12.3648 12.2849 12.8045C11.9548 13.2559 11.5017 13.6026 10.9796 13.8031C10.4177 14.0272 9.81626 14.1352 9.2115 14.1203C8.50013 14.1403 7.7945 13.9877 7.15492 13.6756C6.73457 13.4544 6.37365 13.1352 6.10267 12.7451C5.83151 12.3699 5.67957 11.9218 5.66663 11.459C5.66663 11.251 5.74927 11.0515 5.89637 10.9044C6.04347 10.7573 6.24299 10.6746 6.45102 10.6746C6.65906 10.6746 6.85857 10.7573 7.00567 10.9044C7.15278 11.0515 7.23542 11.251 7.23542 11.459C7.25075 11.6028 7.30538 11.7388 7.39354 11.8538C7.51813 12.0331 7.68392 12.1797 7.87654 12.2822C8.29342 12.4777 8.7515 12.5697 9.2115 12.5525C9.60963 12.5652 10.0063 12.4977 10.3778 12.3541C10.627 12.265 10.8455 12.1049 11.0065 11.896C11.1265 11.7291 11.186 11.5263 11.1751 11.321C11.1831 11.1629 11.1511 11.0054 11.0822 10.8629C11.0109 10.746 10.9135 10.6473 10.7975 10.5745C10.6117 10.4571 10.4104 10.3661 10.1995 10.3042C10.027 10.2525 9.84017 10.2017 9.64563 10.1509L9.63125 10.149C9.61737 10.1448 9.6033 10.1413 9.58908 10.1384C9.45964 10.1048 9.32961 10.0735 9.19904 10.0445C8.85308 9.96976 8.61254 9.91034 8.46208 9.86434L8.4525 9.85859C8.4501 9.85702 8.44753 9.85573 8.44483 9.85476C8.09696 9.77043 7.75483 9.66309 7.41942 9.53468C6.97718 9.35708 6.58878 9.06743 6.29242 8.69422C5.98504 8.29109 5.82445 7.79513 5.83721 7.28834C5.83721 6.78043 6.00396 6.28497 6.31158 5.87959C6.63167 5.47134 7.06004 5.16084 7.54783 4.98451C8.08682 4.79027 8.65691 4.69671 9.22971 4.70851C9.68013 4.70372 10.1296 4.76601 10.5618 4.89347C10.9355 5.00272 11.2863 5.18097 11.5958 5.41864C11.8642 5.6218 12.0865 5.87672 12.2523 6.16997C12.3508 6.3531 12.3725 6.56785 12.3126 6.76698C12.2528 6.96611 12.1163 7.13331 11.9332 7.2318C11.8425 7.28057 11.7431 7.311 11.6407 7.32135C11.5382 7.33171 11.4348 7.32179 11.3362 7.29215C11.137 7.23231 10.9698 7.0958 10.8713 6.91268C10.8046 6.80752 10.718 6.71638 10.6164 6.64434C10.4594 6.52971 10.2832 6.44403 10.096 6.39134C9.81421 6.31041 9.52194 6.27165 9.22875 6.27634C8.85005 6.26532 8.47248 6.32278 8.11421 6.44597C7.9005 6.5188 7.71171 6.64722 7.56508 6.81972C7.46064 6.95322 7.40395 7.11788 7.40408 7.28739C7.39133 7.44556 7.43589 7.60305 7.52963 7.73109C7.65804 7.8873 7.82383 8.00901 8.01263 8.08184C8.37848 8.22237 8.75504 8.33326 9.13867 8.41343C9.46067 8.48434 9.72038 8.54759 9.94079 8.60797C10.1909 8.67026 10.4343 8.73639 10.6538 8.80347Z" fill="#4C4B4A"/>
<path fill-rule="evenodd" clip-rule="evenodd" d="M5.66667 0.635256C4.80876 0.63504 3.96505 0.854202 3.2157 1.27192C2.46635 1.68963 1.83626 2.29203 1.3853 3.02185C0.934346 3.75168 0.677503 4.5847 0.639179 5.44175C0.600854 6.29881 0.782323 7.15143 1.16634 7.91859C0.908388 9.27665 0.986297 10.6772 1.39329 11.9983C1.80027 13.3193 2.524 14.5209 3.50147 15.4984C4.47893 16.4758 5.68051 17.1996 7.00158 17.6066C8.32266 18.0135 9.72319 18.0915 11.0813 17.8335C12.0259 18.3065 13.0955 18.4702 14.1384 18.3013C15.1813 18.1324 16.1445 17.6394 16.8916 16.8924C17.6386 16.1453 18.1316 15.1821 18.3005 14.1392C18.4694 13.0963 18.3057 12.0267 17.8327 11.082C18.0908 9.72401 18.013 8.32347 17.6062 7.00235C17.1993 5.68124 16.4757 4.47959 15.4983 3.50203C14.5209 2.52447 13.3194 1.80063 11.9984 1.39351C10.6774 0.986397 9.27685 0.908352 7.91876 1.16617C7.21981 0.815675 6.44857 0.634489 5.66667 0.635256ZM2.07292 5.66651C2.07286 5.03695 2.23818 4.41843 2.55233 3.87286C2.86648 3.32729 3.31844 2.87382 3.86295 2.55784C4.40747 2.24187 5.02543 2.07448 5.65498 2.07243C6.28453 2.07038 6.90357 2.23375 7.45013 2.54617C7.60569 2.63519 7.78889 2.66287 7.9638 2.6238C9.12194 2.36456 10.3268 2.40216 11.4665 2.73309C12.6063 3.06403 13.6439 3.67758 14.4831 4.51677C15.3223 5.35596 15.9358 6.39359 16.2668 7.53332C16.5977 8.67304 16.6353 9.87791 16.376 11.036C16.337 11.211 16.3647 11.3942 16.4537 11.5497C16.8459 12.2344 17.0019 13.0291 16.8977 13.8112C16.7934 14.5934 16.4345 15.3194 15.8766 15.8774C15.3186 16.4353 14.5926 16.7942 13.8104 16.8984C13.0283 17.0027 12.2336 16.8467 11.5489 16.4545C11.3938 16.3654 11.2109 16.3373 11.0362 16.3759C9.87807 16.6351 8.67321 16.5975 7.53348 16.2666C6.39376 15.9357 5.35613 15.3221 4.51694 14.4829C3.67774 13.6437 3.0642 12.6061 2.73326 11.4664C2.40232 10.3266 2.36473 9.12177 2.62396 7.96363C2.66304 7.78872 2.63535 7.60552 2.54634 7.44996C2.23517 6.90716 2.07193 6.29218 2.07292 5.66651Z" fill="#4C4B4A"/>
</svg>
